<mxfile host="app.diagrams.net" modified="2021-08-23T08:55:29.989Z" agent="5.0 (Macintosh; Intel Mac OS X 10_15_7) AppleWebKit/537.36 (KHTML, like Gecko) Chrome/86.0.4240.193 Safari/537.36" etag="Su5WKRphfVpTjd2FYUgc" version="14.9.8" type="github">
  <diagram id="rVYslNELDEWYKsfZxIWj" name="Page-1">
    <mxGraphModel dx="946" dy="536" grid="1" gridSize="10" guides="1" tooltips="1" connect="1" arrows="1" fold="1" page="1" pageScale="1" pageWidth="827" pageHeight="1169" math="0" shadow="0">
      <root>
        <mxCell id="0" />
        <mxCell id="1" parent="0" />
        <mxCell id="Sfi9YqXefAf1vJETktQl-1" value="1" style="rounded=0;whiteSpace=wrap;html=1;fillColor=#dae8fc;strokeColor=#6c8ebf;" vertex="1" parent="1">
          <mxGeometry x="260" y="390" width="50" height="50" as="geometry" />
        </mxCell>
        <mxCell id="Sfi9YqXefAf1vJETktQl-2" value="3" style="rounded=0;whiteSpace=wrap;html=1;fillColor=#fff2cc;strokeColor=#d6b656;" vertex="1" parent="1">
          <mxGeometry x="310" y="390" width="50" height="50" as="geometry" />
        </mxCell>
        <mxCell id="Sfi9YqXefAf1vJETktQl-3" value="" style="rounded=0;whiteSpace=wrap;html=1;fillColor=#f8cecc;strokeColor=#b85450;" vertex="1" parent="1">
          <mxGeometry x="360" y="390" width="50" height="50" as="geometry" />
        </mxCell>
        <mxCell id="Sfi9YqXefAf1vJETktQl-4" value="2" style="rounded=0;whiteSpace=wrap;html=1;fillColor=#fff2cc;strokeColor=#d6b656;" vertex="1" parent="1">
          <mxGeometry x="260" y="440" width="50" height="50" as="geometry" />
        </mxCell>
        <mxCell id="Sfi9YqXefAf1vJETktQl-5" value="5" style="rounded=0;whiteSpace=wrap;html=1;fillColor=#d5e8d4;strokeColor=#82b366;" vertex="1" parent="1">
          <mxGeometry x="310" y="440" width="50" height="50" as="geometry" />
        </mxCell>
        <mxCell id="Sfi9YqXefAf1vJETktQl-6" value="7" style="rounded=0;whiteSpace=wrap;html=1;fillColor=#dae8fc;strokeColor=#6c8ebf;" vertex="1" parent="1">
          <mxGeometry x="360" y="440" width="50" height="50" as="geometry" />
        </mxCell>
        <mxCell id="Sfi9YqXefAf1vJETktQl-7" value="4" style="rounded=0;whiteSpace=wrap;html=1;fillColor=#d5e8d4;strokeColor=#82b366;" vertex="1" parent="1">
          <mxGeometry x="260" y="490" width="50" height="50" as="geometry" />
        </mxCell>
        <mxCell id="Sfi9YqXefAf1vJETktQl-8" value="9" style="rounded=0;whiteSpace=wrap;html=1;fillColor=#fff2cc;strokeColor=#d6b656;" vertex="1" parent="1">
          <mxGeometry x="360" y="490" width="50" height="50" as="geometry" />
        </mxCell>
        <mxCell id="Sfi9YqXefAf1vJETktQl-9" value="13" style="rounded=0;whiteSpace=wrap;html=1;fillColor=#d5e8d4;strokeColor=#82b366;" vertex="1" parent="1">
          <mxGeometry x="410" y="390" width="50" height="50" as="geometry" />
        </mxCell>
        <mxCell id="Sfi9YqXefAf1vJETktQl-10" value="10" style="rounded=0;whiteSpace=wrap;html=1;fillColor=#fff2cc;strokeColor=#d6b656;" vertex="1" parent="1">
          <mxGeometry x="410" y="440" width="50" height="50" as="geometry" />
        </mxCell>
        <mxCell id="Sfi9YqXefAf1vJETktQl-11" value="12" style="rounded=0;whiteSpace=wrap;html=1;fillColor=#d5e8d4;strokeColor=#82b366;" vertex="1" parent="1">
          <mxGeometry x="410" y="490" width="50" height="50" as="geometry" />
        </mxCell>
        <mxCell id="Sfi9YqXefAf1vJETktQl-12" value="" style="rounded=0;whiteSpace=wrap;html=1;fillColor=#f8cecc;strokeColor=#b85450;" vertex="1" parent="1">
          <mxGeometry x="260" y="540" width="50" height="50" as="geometry" />
        </mxCell>
        <mxCell id="Sfi9YqXefAf1vJETktQl-13" value="8" style="rounded=0;whiteSpace=wrap;html=1;fillColor=#fff2cc;strokeColor=#d6b656;" vertex="1" parent="1">
          <mxGeometry x="310" y="540" width="50" height="50" as="geometry" />
        </mxCell>
        <mxCell id="Sfi9YqXefAf1vJETktQl-14" value="11" style="rounded=0;whiteSpace=wrap;html=1;fillColor=#d5e8d4;strokeColor=#82b366;" vertex="1" parent="1">
          <mxGeometry x="360" y="540" width="50" height="50" as="geometry" />
        </mxCell>
        <mxCell id="Sfi9YqXefAf1vJETktQl-15" value="15" style="rounded=0;whiteSpace=wrap;html=1;fillColor=#dae8fc;strokeColor=#6c8ebf;" vertex="1" parent="1">
          <mxGeometry x="410" y="540" width="50" height="50" as="geometry" />
        </mxCell>
        <mxCell id="Sfi9YqXefAf1vJETktQl-16" value="6" style="rounded=0;whiteSpace=wrap;html=1;fillColor=#dae8fc;strokeColor=#6c8ebf;" vertex="1" parent="1">
          <mxGeometry x="310" y="490" width="50" height="50" as="geometry" />
        </mxCell>
      </root>
    </mxGraphModel>
  </diagram>
</mxfile>
